{"title":"Equestria Girls (2013) 720p CAM x264 - EvoStorm","uid":8612468,"size":1301789568,"categoryP":"video","categoryS":"hd___movies","magnet":"?xt=urn:btih:e005d9462ada8c3de40ed9536663576b940cd30b&amp;dn=Equestria+Girls+%282013%29+720p+CAM+x264+-+EvoStorm&amp;tr=udp%3A%2F%2Ftracker.openbittorrent.com%3A80&amp;tr=udp%3A%2F%2Fopen.demonii.com%3A1337&amp;tr=udp%3A%2F%2Ftracker.coppersurfer.tk%3A6969&amp;tr=udp%3A%2F%2Fexodus.desync.com%3A6969","seeders":2,"leechers":0,"uploader":"Evostorm","files":-1,"time":1372175269,"description":"Equestria Girls (2013) 720p CAM x264 - EvoStorm\n\nOriginal video by roxydodgersummers\n\nCropped and edited by EvoStorm\n\nMediaInfo:\n\nFormat                                   : MPEG-4\nFormat profile                           : Base Media / Version 2\nCodec ID                                 : mp42\nFile size                                : 1.20 GiB\nDuration                                 : 1h 13mn\nOverall bit rate mode                    : Variable\nOverall bit rate                         : 2 343 Kbps\nWriting application                      : HandBrake 0.9.8 2012071700\n\nVideo\nID                                       : 1\nFormat                                   : AVC\nFormat/Info                              : Advanced Video Codec\nFormat profile                           : &lt;a class=&quot;__cf_email__&quot; href=&quot;/cdn-cgi/l/email-protection&quot; data-cfemail=&quot;c984a8a0a78985fae7f8&quot;&gt;[email&amp;#160;protected]&lt;/a&gt;&lt;script cf-hash='f9e31' type=&quot;text/javascript&quot;&gt;\n/* &lt;![CDATA[ */!function(){try{var t=&quot;currentScript&quot;in document?document.currentScript:function(){for(var t=document.getElementsByTagName(&quot;script&quot;),e=t.length;e--;)if(t[e].getAttribute(&quot;cf-hash&quot;))return t[e]}();if(t&amp;&amp;t.previousSibling){var e,r,n,i,c=t.previousSibling,a=c.getAttribute(&quot;data-cfemail&quot;);if(a){for(e=&quot;&quot;,r=parseInt(a.substr(0,2),16),n=2;a.length-n;n+=2)i=parseInt(a.substr(n,2),16)^r,e+=String.fromCharCode(i);e=document.createTextNode(e),c.parentNode.replaceChild(e,c)}}}catch(u){}}();/* ]]&gt; */&lt;/script&gt;\nFormat settings, CABAC                   : Yes\nFormat settings, ReFrames                : 4 frames\nCodec ID                                 : avc1\nCodec ID/Info                            : Advanced Video Coding\nDuration                                 : 1h 13mn\nBit rate mode                            : Variable\nBit rate                                 : 2 178 Kbps\nWidth                                    : 1 280 pixels\nHeight                                   : 720 pixels\nDisplay aspect ratio                     : 16:9\nFrame rate mode                          : Constant\nFrame rate                               : 29.970 fps\nColor space                              : YUV\nChroma subsampling                       : 4:2:0\nBit depth                                : 8 bits\nScan type                                : Progressive\nBits/(Pixel*Frame)                       : 0.079\nStream size                              : 1.11 GiB (93%)\nWriting library                          : x264 core 120\n\n\nAudio\nID                                       : 2\nFormat                                   : AAC\nFormat/Info                              : Advanced Audio Codec\nFormat profile                           : LC\nCodec ID                                 : 40\nDuration                                 : 1h 13mn\nBit rate mode                            : Variable\nBit rate                                 : 160 Kbps\nMaximum bit rate                         : 195 Kbps\nChannel(s)                               : 2 channels\nChannel positions                        : Front: L R\nSampling rate                            : 48.0 KHz\nCompression mode                         : Lossy\nDelay relative to video                  : 67ms\nStream size                              : 83.6 MiB (7%)\nLanguage                                 : English\n\nNotes:\n-The video has been cropped to fit a proper 16:9 ratio. However, since the cropped video isn't actually 1080p, the resolution has been decreased to 720p for a smaller file size. Really, it doesn't make a difference.\n-The colors may be a bit off at points. I don't know why, but the video editor I'm using had a hard time rendering it properly.\n-The audio has been amplified, and noise removal has been attempted, but there isn't a big difference. The audio has also been resynced, as the original was out of sync.","torrent":{"xt":"urn:btih:e005d9462ada8c3de40ed9536663576b940cd30b","amp;dn":"Equestria+Girls+%282013%29+720p+CAM+x264+-+EvoStorm","amp;tr":["udp%3A%2F%2Ftracker.openbittorrent.com%3A80","udp%3A%2F%2Fopen.demonii.com%3A1337","udp%3A%2F%2Ftracker.coppersurfer.tk%3A6969","udp%3A%2F%2Fexodus.desync.com%3A6969"],"infoHash":"e005d9462ada8c3de40ed9536663576b940cd30b","infoHashBuffer":{"type":"Buffer","data":[224,5,217,70,42,218,140,61,228,14,217,83,102,99,87,107,148,12,211,11]},"announce":[],"urlList":[]}}